<svg width="32" height="32" viewBox="0 0 32 32" fill="none" xmlns="http://www.w3.org/2000/svg">
  <rect width="32" height="32" rx="8" fill="#0EA5E9"/>
  <path d="M8 10C8 8.89543 8.89543 8 10 8H22C23.1046 8 24 8.89543 24 10V22C24 23.1046 23.1046 24 22 24H10C8.89543 24 8 23.1046 8 22V10Z" fill="white"/>
  <path d="M10 11H22V12H10V11Z" fill="#0EA5E9"/>
  <path d="M10 13H22V14H10V13Z" fill="#0EA5E9"/>
  <path d="M10 15H22V16H10V15Z" fill="#0EA5E9"/>
  <path d="M10 17H22V18H10V17Z" fill="#0EA5E9"/>
  <path d="M10 19H22V20H10V19Z" fill="#0EA5E9"/>
  <path d="M10 21H22V22H10V21Z" fill="#0EA5E9"/>
  <circle cx="11" cy="11.5" r="0.5" fill="white"/>
  <circle cx="11" cy="13.5" r="0.5" fill="white"/>
  <circle cx="11" cy="15.5" r="0.5" fill="white"/>
  <circle cx="11" cy="17.5" r="0.5" fill="white"/>
  <circle cx="11" cy="19.5" r="0.5" fill="white"/>
  <circle cx="11" cy="21.5" r="0.5" fill="white"/>
</svg>
